<?xml version="1.0" encoding="UTF-8" standalone="no"?><!DOCTYPE svg PUBLIC "-//W3C//DTD SVG 1.1//EN" "http://www.w3.org/Graphics/SVG/1.1/DTD/svg11.dtd"><svg width="100%" height="100%" viewBox="0 0 800 800" version="1.1" xmlns="http://www.w3.org/2000/svg" xmlns:xlink="http://www.w3.org/1999/xlink" xml:space="preserve" xmlns:serif="http://www.serif.com/" style="fill-rule:evenodd;clip-rule:evenodd;stroke-linejoin:round;stroke-miterlimit:2;"><rect id="GI-Bell" serif:id="GI Bell" x="0" y="0" width="800" height="800" style="fill:none;"/><g id="GI-Bell1" serif:id="GI Bell"><g id="Bell-v2" serif:id="Bell v2" transform="matrix(0.986997,0,0,0.878571,5.20206,52.5714)"><path d="M431.011,170.336C516.992,184.562 582.518,257.054 582.518,344.228C582.518,345.774 582.498,347.302 582.457,348.81C582.498,350.124 582.518,351.442 582.518,352.764C582.518,393.475 562.962,430.439 531.199,457.583C531.008,460.076 530.755,462.551 530.442,465.006C565.194,444.776 589.979,416.624 598.946,384.592C599.739,389.652 600.146,394.793 600.146,400C600.146,447.467 566.314,489.448 514.618,514.77C510.054,523.324 504.664,531.338 498.56,538.696C565.989,515.297 614.182,468.637 621.832,413.68C654.371,438.963 673.556,470.021 673.556,503.577C673.556,588.384 551.012,657.236 400.073,657.236C249.134,657.236 126.59,588.384 126.59,503.577C126.59,470.021 145.775,438.963 178.314,413.68C185.401,464.587 227.275,508.376 287.002,533.15C288.472,528.21 289.772,521.28 271.605,507.295C227.842,481.605 200,443.06 200,400C200,379.505 206.307,360.033 217.636,342.483C218.429,263.52 272.983,196.898 347.571,175.231C348.87,180.644 350.988,185.747 353.789,190.409C348.373,194.278 345.243,198.846 345.243,203.737C345.243,217.668 370.642,228.979 401.926,228.979L402.183,226.092C385.312,225.949 371.694,218.249 371.694,208.785C371.694,201.581 379.586,195.398 390.797,192.794L390.797,189.55C380.421,185.095 373.163,174.926 373.163,163.106C373.163,151.286 380.421,141.116 390.797,136.661L390.797,125.433C388.205,124.811 385.941,123.992 384.138,123.028C381.256,121.486 379.549,119.573 379.549,117.502L379.549,107.816C379.549,102.715 389.905,98.574 402.66,98.574C415.416,98.574 425.772,102.715 425.772,107.816L425.772,117.502C425.772,120.615 421.915,123.371 416.008,125.046L416.008,126.505C416.008,127.604 415.476,128.646 414.524,129.581L414.524,136.754C424.785,141.257 431.943,151.367 431.943,163.106C431.943,165.602 431.619,168.025 431.011,170.336ZM326.608,546.077C333.893,548.445 339.76,549.83 341.417,548.058C343.99,544.123 340.956,535.987 330.462,531.736C323.031,528.725 325.121,530.105 315.296,526.874C311.319,538.127 317.084,542.982 326.608,546.077Z" style="fill:rgb(140,140,140);"/></g></g></svg>