<?xml version="1.0" encoding="UTF-8" standalone="no"?><!DOCTYPE svg PUBLIC "-//W3C//DTD SVG 1.1//EN" "http://www.w3.org/Graphics/SVG/1.1/DTD/svg11.dtd"><svg width="100%" height="100%" viewBox="0 0 800 800" version="1.1" xmlns="http://www.w3.org/2000/svg" xmlns:xlink="http://www.w3.org/1999/xlink" xml:space="preserve" xmlns:serif="http://www.serif.com/" style="fill-rule:evenodd;clip-rule:evenodd;stroke-linejoin:round;stroke-miterlimit:2;"><g id="YAMAHA-LOGO" serif:id="YAMAHA LOGO" transform="matrix(1.89531,0,0,1.89531,-6.05012,269.782)"><g id="LOGO"><g id="Circle" transform="matrix(0.375,0,0,0.375,0,-0.375)"><path d="M168.657,64.535C227.394,64.535 275.082,112.222 275.082,170.959C275.082,229.697 227.394,277.384 168.657,277.384C109.92,277.384 62.233,229.697 62.233,170.959C62.233,112.222 109.92,64.535 168.657,64.535ZM96.904,220.304C112.617,243.097 138.905,258.049 168.657,258.049C198.409,258.049 224.697,243.097 240.41,220.304L255.631,223.526L257.468,222.234L257.669,219.997L247.279,208.44C252.707,197.085 255.747,184.374 255.747,170.959C255.747,125.2 220.378,87.636 175.511,84.136L170.695,69.354L168.657,68.409L166.62,69.354L161.804,84.136C116.936,87.636 81.568,125.2 81.568,170.959C81.568,184.374 84.607,197.085 90.035,208.44L79.645,219.997L79.846,222.234L81.683,223.526L96.904,220.304Z" style="fill:rgb(242,242,242);"/></g><g transform="matrix(0.375,0,0,0.375,0,0)"><path d="M168.657,69.503L169.634,69.772L179.84,102.137C176.285,102.686 174.332,108.15 174.332,108.15L174.332,112.298C174.332,113.739 174.941,114.836 175.869,115.965C181.286,118.633 185.016,124.209 185.016,130.651L185.016,244.581L175.277,244.581L175.228,130.651C175.228,127.024 172.284,124.08 168.657,124.08C165.03,124.08 162.086,127.024 162.086,130.651L162.037,244.581L152.298,244.581L152.298,130.651C152.298,124.209 156.028,118.633 161.445,115.965C162.373,114.836 162.982,113.739 162.982,112.298L162.982,108.15C162.982,108.15 161.029,102.686 157.474,102.137L167.68,69.772L168.657,69.503Z" style="fill:rgb(242,242,242);"/></g><g transform="matrix(-0.1875,-0.32476,0.32476,-0.1875,39.6738,150.375)"><path d="M168.657,69.503L169.634,69.772L179.84,102.137C176.285,102.686 174.332,108.15 174.332,108.15L174.332,112.298C174.332,113.739 174.941,114.836 175.869,115.965C181.286,118.633 185.016,124.209 185.016,130.651L185.016,244.581L175.277,244.581L175.228,130.651C175.228,127.024 172.284,124.08 168.657,124.08C165.03,124.08 162.086,127.024 162.086,130.651L162.037,244.581L152.298,244.581L152.298,130.651C152.298,124.209 156.028,118.633 161.445,115.965C162.373,114.836 162.982,113.739 162.982,112.298L162.982,108.15C162.982,108.15 161.029,102.686 157.474,102.137L167.68,69.772L168.657,69.503Z" style="fill:rgb(242,242,242);"/></g><g transform="matrix(-0.1875,0.32476,-0.32476,-0.1875,150.065,40.829)"><path d="M168.657,69.503L169.634,69.772L179.84,102.137C176.285,102.686 174.332,108.15 174.332,108.15L174.332,112.298C174.332,113.739 174.941,114.836 175.869,115.965C181.286,118.633 185.016,124.209 185.016,130.651L185.016,244.581L175.277,244.581L175.228,130.651C175.228,127.024 172.284,124.08 168.657,124.08C165.03,124.08 162.086,127.024 162.086,130.651L162.037,244.581L152.298,244.581L152.298,130.651C152.298,124.209 156.028,118.633 161.445,115.965C162.373,114.836 162.982,113.739 162.982,112.298L162.982,108.15C162.982,108.15 161.029,102.686 157.474,102.137L167.68,69.772L168.657,69.503Z" style="fill:rgb(242,242,242);"/></g></g><g id="YAMAHA"><path id="A" d="M154.88,97.92L167.052,29.12L185.557,29.12L198.118,97.92L183.994,97.92L181.746,81.368L171.315,81.458L168.561,97.92L154.88,97.92ZM179.708,68.902L176.181,45.756L173.144,68.769L179.708,68.902Z" style="fill:rgb(241,241,241);fill-rule:nonzero;"/><path id="H" d="M314.56,28.836L328.64,28.836L328.666,56.27L340.826,56.27L340.8,28.836L354.88,28.836L354.88,97.97L340.8,97.97L340.852,69.17L328.692,69.17L328.623,97.935L314.543,97.935L314.56,28.836Z" style="fill:rgb(241,241,241);fill-rule:nonzero;"/><path id="A1" serif:id="A" d="M263.65,97.92L275.822,29.12L294.327,29.12L306.888,97.92L292.764,97.92L290.516,81.368L280.085,81.458L277.331,97.92L263.65,97.92ZM288.478,68.902L284.951,45.756L281.914,68.769L288.478,68.902Z" style="fill:rgb(241,241,241);fill-rule:nonzero;"/><path id="M" d="M205.76,63.52L205.76,29.12L224.964,29.12L230.705,61.532L236.549,29.12L255.68,29.12L255.68,97.899L242.691,97.899L242.48,54.56L234.81,97.899L226.278,97.899L218.56,54.56L218.56,97.899L205.818,97.899L205.76,63.52L205.76,63.52Z" style="fill:rgb(241,241,241);fill-rule:nonzero;"/><path id="A2" serif:id="A" d="M362.639,97.624L374.812,28.824L393.316,28.824L405.877,97.624L391.753,97.624L389.505,81.071L379.075,81.162L376.32,97.624L362.639,97.624ZM387.468,68.605L383.94,45.46L380.903,68.472L387.468,68.605Z" style="fill:rgb(241,241,241);fill-rule:nonzero;"/><path id="Y" d="M125.805,75.514L110.432,28.86L124.683,28.86L133.208,59.56L142.161,28.86L155.98,28.86L140.8,75.892L140.8,97.92L126.08,97.92L125.805,75.514Z" style="fill:rgb(241,241,241);fill-rule:nonzero;"/></g></g></svg>